<?xml version="1.0" encoding="utf-8"?><svg viewBox="0 0 28 28" xmlns="http://www.w3.org/2000/svg" xmlns:xlink="http://www.w3.org/1999/xlink"><style>:root>svg{display:none}:root>svg:target{display:block}</style><svg viewBox="0 0 28 28" id="cross" xmlns="http://www.w3.org/2000/svg"><path d="M21 7L7 21M7 7l14 14"/></svg><svg fill="none" viewBox="0 0 13 19" id="location" xmlns="http://www.w3.org/2000/svg"><path opacity=".7" d="M6.457.315A5.997 5.997 0 001.26 9.312l5.197 9.003 5.194-9.003a6 6 0 00.806-3 6 6 0 00-6-5.997zm0 7.943A1.946 1.946 0 014.51 6.312c0-1.07.872-1.941 1.947-1.941 1.072 0 1.94.87 1.94 1.941a1.94 1.94 0 01-1.94 1.946z" fill="#fff"/></svg><svg fill="none" viewBox="0 0 18 12" id="mail" xmlns="http://www.w3.org/2000/svg"><path d="M1 0h16L9 7 1 0zM6.714 7L1 12h16l-5.714-5L9 9 6.714 7zM0 1h.143l5.714 5-5.714 5H0V1zM18 11h-.143l-5.714-5 5.714-5H18v10z" fill="#fff" fill-opacity=".7"/></svg><svg viewBox="0 0 24 24" id="menu" xmlns="http://www.w3.org/2000/svg"><path d="M3 12h18M3 6h18M3 18h18"/></svg><svg fill="none" viewBox="0 0 12 12" id="phone" xmlns="http://www.w3.org/2000/svg"><path opacity=".7" d="M8.22 7.321c-.82.725-.866 1.497-1.634 1.45-.775-.046-1.5-.864-2.226-1.682-.725-.818-1.451-1.637-1.405-2.41.045-.773.818-.726 1.633-1.451C5.41 2.5 3.23.047 2.461 0 1.686-.045.004 2.179.004 2.179c-.093 1.543 1.309 4.769 2.72 6.361C4.134 10.132 7.17 11.906 8.715 12c0 0 2.408-1.408 2.455-2.179.046-.772-2.131-3.227-2.952-2.5z" fill="#fff"/></svg></svg>